HIERARCHY
ROOT Hips
{
	OFFSET 0.00000 0.00000 0.00000
	CHANNELS 6 Xposition Yposition Zposition Zrotation Yrotation Xrotation 
	JOINT LHipJoint
	{
		OFFSET 0 0 0
		CHANNELS 3 Zrotation Yrotation Xrotation
		JOINT LeftHip
		{
			OFFSET 1.40001 -1.72600 0.84541
			CHANNELS 3 Zrotation Yrotation Xrotation
			JOINT LeftKnee
			{
				OFFSET 2.34760 -6.44999 0.00000
				CHANNELS 3 Zrotation Yrotation Xrotation
				JOINT LeftAnkle
				{
					OFFSET 2.50650 -6.88655 0.00000
					CHANNELS 3 Zrotation Yrotation Xrotation
					JOINT LeftToe
					{
						OFFSET 0.12464 -0.34243 1.95563
						CHANNELS 3 Zrotation Yrotation Xrotation
						End Site
						{
							OFFSET 0.00000 -0.00000 1.00479
						}
					}
				}
			}
		}
	}
	JOINT RHipJoint
	{
		OFFSET 0 0 0
		CHANNELS 3 Zrotation Yrotation Xrotation
		JOINT RightHip
		{
			OFFSET -1.40958 -1.72600 0.84541
			CHANNELS 3 Zrotation Yrotation Xrotation
			JOINT RightKnee
			{
				OFFSET -2.37905 -6.53640 0.00000
				CHANNELS 3 Zrotation Yrotation Xrotation
				JOINT RightAnkle
				{
					OFFSET -2.50470 -6.88163 0.00000
					CHANNELS 3 Zrotation Yrotation Xrotation
					JOINT RightToe
					{
						OFFSET -0.12236 -0.33619 1.81785
						CHANNELS 3 Zrotation Yrotation Xrotation
						End Site
						{
							OFFSET -0.00000 -0.00000 0.93746
						}
					}
				}
			}
		}
	}
	JOINT lowerback
	{
		OFFSET 0 0 0
		CHANNELS 3 Zrotation Yrotation Xrotation
		JOINT Chest
		{
			OFFSET -0.02146 1.96915 0.26424
			CHANNELS 3 Zrotation Yrotation Xrotation
			JOINT Chest2
			{
				OFFSET 0.01522 1.99484 0.02086
				CHANNELS 3 Zrotation Yrotation Xrotation
				JOINT lowerneck
				{
					OFFSET 0 0 0
					CHANNELS 3 Zrotation Yrotation Xrotation
					JOINT Neck
					{
						OFFSET -0.02954 1.71757 0.03505
						CHANNELS 3 Zrotation Yrotation Xrotation
						JOINT Head
						{
							OFFSET 0.04170 1.65781 -0.11024
							CHANNELS 3 Zrotation Yrotation Xrotation
							End Site
							{
								OFFSET 0.01600 1.81465 -0.05144
							}
						}
					}
				}
				JOINT LeftCollar
				{
					OFFSET 0 0 0
					CHANNELS 3 Zrotation Yrotation Xrotation
					JOINT LeftShoulder
					{
						OFFSET 2.77679 1.60868 -0.78649
CHANNELS 3 Zrotation Xrotation Yrotation
						JOINT LeftElbow
						{
OFFSET 0 -4.626720 -0.000000
CHANNELS 3 Zrotation Xrotation Yrotation
							JOINT LeftWrist
							{
OFFSET 0 -3.110180 -0.000000
CHANNELS 3 Zrotation Xrotation Yrotation
								JOINT lhand
								{
									OFFSET 0 0 0
CHANNELS 3 Zrotation Xrotation Yrotation
									JOINT LFingers
									{
OFFSET 0 -0.743830 -0.000000
CHANNELS 3 Zrotation Xrotation Yrotation
										End Site
										{
OFFSET 0 -0.599700 -0.000000
										}
									}
								}
								JOINT LThumb
								{
OFFSET 0 0.000000 0.000000
CHANNELS 3 Zrotation Xrotation Yrotation
									End Site
									{
OFFSET 0 -0.608850 0.608850
									}
								}
							}
						}
					}
				}
				JOINT RightCollar
				{
					OFFSET 0 0 0
					CHANNELS 3 Zrotation Yrotation Xrotation
					JOINT RightShoulder
					{
						OFFSET -2.73247 1.63658 -0.74740
CHANNELS 3 Zrotation Xrotation Yrotation
						JOINT RightElbow
						{
OFFSET 0 -4.559190 -0.000000
CHANNELS 3 Zrotation Xrotation Yrotation
							JOINT RightWrist
							{
OFFSET 0 -3.227480 -0.000000
CHANNELS 3 Zrotation Xrotation Yrotation
								JOINT rhand
								{
									OFFSET 0 0 0
CHANNELS 3 Zrotation Xrotation Yrotation
									JOINT RFingers
									{
OFFSET 0 -0.700880 -0.000000
CHANNELS 3 Zrotation Xrotation Yrotation
										End Site
										{
OFFSET 0 -0.565070 -0.000000
										}
									}
								}
								JOINT RThumb
								{
OFFSET 0 0.000000 0.000000
CHANNELS 3 Zrotation Xrotation Yrotation
									End Site
									{
OFFSET 0 -0.573700 0.573700
									}
								}
							}
						}
					}
				}
			}
		}
	}
}
MOTION
Frames: 15
Frame Time: .0083333
0.6536 16.3879 -2.2594 2.8012 2.1985 15.9365 0.0000 0.0000 0.0000 -25.6632 1.7370 -18.4084 2.3072 9.4786 27.3044 0.1733 -22.9384 -17.3937 0.2888 3.4560 9.5511 0.0000 0.0000 0.0000 13.2820 10.4916 -47.9187 -4.9047 -13.2757 40.4094 -0.4912 -0.8819 -13.5879 -0.4689 4.3921 -12.1824 -3.8454 -1.9272 -13.8984 0.0908 -2.0362 -4.9291 1.9376 -0.9912 2.7223 0.4281 0.5018 -5.4792 -1.0908 0.7225 7.1795 -0.3975 0.3273 3.2763 0.0000 -0.0000 0.0000 7.5878 -1.265 -28.0055 20.8356 -31.6359 5.9635 21.2088 -12.2395 15.2008 0.0 0.0 0.0 -7.1250 0.0 0.0 -4.3076 13.7643 -3.1681 0.0000 -0.0000 0.0000 2.6207 17.6226 -41.4187 -5.8721 -10.0487 -0.5167 -17.0068 54.3461 34.4723 0.0 0.0 0.0 7.1250 0.0 -0.0 20.3102 64.5567 -9.8067
0.6579 16.3715 -2.0641 3.1679 2.7060 15.9095 0.0000 0.0000 0.0000 -25.9927 2.4861 -17.2452 2.1637 9.1991 26.4201 0.2578 -23.2240 -18.1548 0.1313 2.3352 6.4330 0.0000 0.0000 0.0000 13.1407 9.8631 -48.0367 -4.1889 -12.4076 37.1897 -0.5055 -0.5135 -13.6274 -0.5156 4.6025 -12.7783 -4.0681 -2.0889 -13.8163 0.0548 -2.2204 -4.8517 1.9958 -1.0836 2.7768 0.3664 0.4967 -5.0905 -1.0607 0.7148 6.7170 -0.3768 0.3254 3.0424 -0.0000 -0.0000 0.0000 8.042 -1.9758 -29.0935 21.7209 -32.6602 6.4346 21.5845 -13.5594 15.6029 0.0 0.0 0.0 -7.1250 0.0 0.0 -4.0761 13.2948 -3.0373 -0.0000 -0.0000 0.0000 2.7035 18.1976 -42.9985 -5.8673 -10.0406 -0.5159 -17.1219 54.837 34.5095 0.0 0.0 0.0 7.1250 0.0 -0.0 20.2173 64.6226 -9.791
0.6530 16.3534 -1.8752 3.1528 3.1537 15.9988 0.0000 0.0000 0.0000 -25.8642 3.1117 -16.2114 2.0125 8.8921 25.4584 0.3966 -23.0577 -18.9703 0.0240 0.9995 2.7474 0.0000 0.0000 0.0000 13.2982 9.6674 -48.1065 -3.5401 -11.5219 34.0608 -0.4565 -0.5440 -12.9722 -0.6927 5.3204 -14.8247 -4.0573 -2.1794 -13.7067 0.1280 -2.3481 -4.8139 2.0478 -1.1470 2.7685 0.7509 0.4900 -5.0533 -1.4712 0.7019 6.3727 -0.5764 0.3148 2.9231 -0.0000 0.0000 0.0000 8.4952 -2.6836 -29.9536 22.5923 -33.64 6.9111 21.9458 -14.6139 16.0296 0.0 0.0 0.0 -7.1250 0.0 0.0 -3.8587 12.7985 -2.9148 -0.0000 0.0000 0.0000 2.8014 18.6646 -44.696 -5.8444 -10.0024 -0.5119 -17.4373 55.5485 34.6386 0.0 0.0 0.0 7.1250 0.0 -0.0 19.9889 64.8287 -9.7716
0.6478 16.3410 -1.6815 3.0513 3.5667 16.1465 0.0000 0.0000 0.0000 -25.6129 3.4137 -15.1679 1.8720 8.5941 24.5337 0.4478 -22.9121 -19.2174 0.0079 0.5725 1.5731 0.0000 0.0000 0.0000 13.4791 9.5383 -48.1898 -2.9630 -10.6348 31.0580 -0.4577 -0.1250 -12.8275 -0.9866 6.3221 -17.7220 -3.9265 -2.2542 -13.6976 0.2179 -2.4664 -4.7552 2.0478 -1.2077 2.8323 0.9644 0.4225 -5.5881 -1.7484 0.6136 6.5467 -0.7086 0.2636 3.0863 0.0000 0.0000 0.0000 8.8768 -3.5116 -30.6299 23.3673 -34.488 7.3452 22.8371 -15.6614 16.3659 0.0 0.0 0.0 -7.1250 0.0 0.0 -3.2852 12.3273 -2.5123 0.0000 0.0000 0.0000 2.8634 18.9207 -46.9032 -5.8028 -9.9329 -0.5047 -17.443 56.541 34.425 0.0 0.0 0.0 7.1250 0.0 -0.0 19.7686 64.6324 -9.57
0.6377 16.3220 -1.4854 3.4358 3.8833 16.2875 0.0000 0.0000 0.0000 -25.8626 3.4114 -13.9682 1.7351 8.2910 23.6015 0.4341 -22.8113 -19.0682 0.0054 0.4726 1.2986 0.0000 0.0000 0.0000 12.9662 9.5781 -48.2358 -2.4573 -9.7599 28.2027 -0.4515 0.3499 -12.5762 -0.8594 5.9116 -16.5280 -4.3590 -2.3933 -13.6011 0.1819 -2.5980 -4.8330 2.2367 -1.2681 2.7221 1.0783 0.3875 -5.4673 -1.8977 0.5674 6.4259 -0.7784 0.2389 3.0231 0.0000 -0.0000 0.0000 9.2075 -4.1029 -31.0695 24.0057 -35.1703 7.7098 23.3864 -16.2074 16.7117 0.0 0.0 0.0 -7.1250 0.0 0.0 -2.9446 11.8846 -2.2781 0.0000 -0.0000 0.0000 3.0581 19.5598 -47.8303 -5.8380 -9.9917 -0.5108 -17.4384 56.4501 34.625 0.0 0.0 0.0 7.1250 0.0 -0.0 19.9739 64.8165 -9.7583
0.6347 16.2934 -1.2813 3.5898 4.3142 16.3746 0.0000 0.0000 0.0000 -25.8400 3.6164 -12.6595 1.5862 7.9450 22.5471 0.3500 -23.0173 -18.6388 0.0068 0.5323 1.4626 0.0000 0.0000 0.0000 13.1292 9.0650 -48.4615 -2.0328 -8.9342 25.5896 -0.4235 0.8761 -12.0186 -1.0849 6.6199 -18.5940 -4.4554 -2.5086 -13.6117 0.1747 -2.7389 -4.9696 2.2629 -1.3328 2.5978 1.2161 0.3422 -4.5419 -1.9721 0.4997 5.8399 -0.8240 0.2119 2.6505 0.0000 0.0000 0.0000 9.5005 -4.3537 -31.396 24.7666 -35.9645 8.1524 23.0118 -16.335 17.0922 0.0 0.0 0.0 -7.1250 0.0 0.0 -3.2211 11.529 -2.5164 0.0000 0.0000 0.0000 3.272 20.5981 -47.0975 -5.9435 -10.1679 -0.5292 -17.4336 54.6084 34.8131 0.0 0.0 0.0 7.1250 0.0 -0.0 20.1704 64.989 -9.9385
0.6414 16.2700 -1.0729 3.6968 5.1114 16.5281 0.0000 0.0000 0.0000 -25.7034 3.7169 -11.2558 1.4219 7.5409 21.3280 0.3430 -23.0796 -18.6304 0.0018 -0.2753 -0.7565 0.0000 0.0000 0.0000 13.6902 7.8094 -49.0219 -1.6985 -8.2077 23.3467 -0.4006 1.8797 -11.4512 -1.5169 7.7776 -22.0405 -4.3040 -2.6904 -13.8183 0.1956 -2.9867 -4.9422 2.1503 -1.4592 2.7502 1.2063 0.3072 -4.4900 -1.9517 0.4516 5.7540 -0.8169 0.1889 2.6109 -0.0000 0.0000 0.0000 9.7075 -4.9512 -31.7565 25.4813 -36.6919 8.5758 22.892 -16.4678 17.354 0.0 0.0 0.0 -7.1250 0.0 0.0 -3.3197 11.2664 -2.6116 -0.0000 0.0000 0.0000 3.4085 21.2027 -46.8645 -6.0459 -10.3386 -0.5475 -16.8738 52.8209 34.8012 0.0 0.0 0.0 7.1250 0.0 -0.0 20.7941 64.8229 -10.1782
0.6383 16.2695 -0.8727 3.8671 5.7139 16.6360 0.0000 0.0000 0.0000 -25.6219 3.7003 -9.9017 1.2762 7.1595 20.1887 0.2952 -23.0273 -18.2797 0.0101 -0.6504 -1.7872 0.0000 0.0000 0.0000 13.5267 7.4557 -49.1789 -1.4225 -7.5422 21.3320 -0.3786 3.1246 -10.9694 -1.1182 6.7175 -18.8811 -4.4142 -2.8769 -13.8531 0.2475 -3.2150 -4.7990 2.2227 -1.5772 2.9439 1.2741 0.3553 -5.1080 -2.0067 0.5130 6.0082 -0.8472 0.2155 2.8143 -0.0000 -0.0000 0.0000 9.9101 -5.7637 -31.9265 26.1722 -37.3782 8.992 23.07 -16.7153 17.3976 0.0 0.0 0.0 -7.1250 0.0 0.0 -3.2055 11.1953 -2.5262 -0.0000 -0.0000 0.0000 3.4272 21.4194 -47.1163 -6.0780 -10.3923 -0.5532 -16.5786 52.1308 35.0144 0.0 0.0 0.0 7.1250 0.0 -0.0 21.3492 64.9367 -10.5176
0.6262 16.2652 -0.6718 4.0559 6.0594 16.7917 0.0000 0.0000 0.0000 -25.5764 3.8244 -8.7205 1.1429 6.7888 19.0911 0.3039 -22.7271 -18.1501 0.0750 -1.7670 -4.8622 0.0000 0.0000 0.0000 13.2341 7.4785 -49.3150 -1.2071 -6.9701 19.6270 -0.3577 4.5085 -10.6518 -0.5562 4.7774 -13.2748 -4.6901 -3.0181 -13.9446 0.3247 -3.3611 -4.7577 2.4281 -1.6512 3.0658 1.3897 0.3623 -5.0093 -2.2121 0.5237 5.7142 -0.9315 0.2178 2.6991 -0.0000 -0.0000 0.0000 10.051 -6.3614 -32.1901 26.9367 -38.1188 9.46 23.2455 -16.6465 16.6015 0.0 0.0 0.0 -7.1250 0.0 0.0 -3.0300 12.0216 -2.3358 -0.0000 -0.0000 0.0000 3.5206 21.9682 -45.9105 -6.2137 -10.618 -0.578 -16.5094 50.3691 35.4241 0.0 0.0 0.0 7.1250 0.0 -0.0 21.8639 65.2908 -10.9611
0.6225 16.2510 -0.4654 4.0552 6.2835 16.9463 0.0000 0.0000 0.0000 -25.3758 3.8591 -7.5624 1.0357 6.4728 18.1625 0.2288 -22.5301 -17.5110 0.1043 -2.0828 -5.7345 0.0000 0.0000 0.0000 13.7088 6.9833 -49.7599 -1.0399 -6.4854 18.1996 -0.3181 6.3512 -10.3210 -0.4003 4.0620 -11.2511 -4.6780 -3.0417 -14.2038 0.4254 -3.3816 -4.6831 2.5097 -1.6661 3.2909 1.3930 0.3509 -4.8539 -2.3263 0.5106 5.3204 -0.9665 0.2097 2.5387 0.0000 0.0000 0.0000 9.9948 -7.097 -32.258 27.5037 -38.6553 9.8121 23.688 -16.5614 15.9482 0.0 0.0 0.0 -7.1250 0.0 0.0 -2.6876 12.6631 -2.0354 0.0000 0.0000 0.0000 3.5722 22.3647 -44.179 -6.3368 -10.8227 -0.6009 -16.0404 48.0739 36.304 0.0 0.0 0.0 7.1250 0.0 -0.0 23.3830 65.9512 -12.114
0.6295 16.2268 -0.2584 4.2894 6.4937 17.3362 0.0000 0.0000 0.0000 -25.4913 3.5515 -6.6397 0.9672 6.2614 17.5446 0.1823 -22.3535 -17.0711 0.0872 -1.9049 -5.2428 0.0000 0.0000 0.0000 14.2102 6.0619 -50.6348 -0.9072 -6.0697 16.9867 -0.2101 8.4448 -9.4148 -0.3450 3.7743 -10.4425 -4.7848 -3.1107 -14.6996 0.4763 -3.4292 -4.5729 2.5897 -1.6981 3.6864 1.4727 0.3752 -5.4763 -2.5565 0.5507 5.5825 -1.0574 0.2192 2.7465 0.0000 0.0000 0.0000 9.9616 -7.6876 -32.2081 28.2206 -39.3185 10.2631 24.347 -16.9437 16.007 0.0 0.0 0.0 -7.1250 0.0 0.0 -2.2515 12.5116 -1.7117 0.0000 0.0000 0.0000 3.598 22.3615 -43.885 -6.4125 -10.9484 -0.6152 -14.3378 46.5103 36.4283 0.0 0.0 0.0 7.1250 0.0 -0.0 25.4356 65.5764 -13.0181
0.6334 16.2011 -0.0501 4.2624 6.7502 17.6786 0.0000 0.0000 0.0000 -25.2948 3.2565 -5.9877 0.9482 6.2014 17.3698 0.2014 -22.1168 -17.0514 0.1186 -2.2205 -6.1154 0.0000 0.0000 0.0000 15.1445 5.1441 -51.3478 -0.7953 -5.6924 15.8946 -0.0955 10.3489 -8.7059 -0.3507 3.8051 -10.5289 -4.6194 -3.1813 -15.0204 0.6000 -3.5347 -4.6113 2.5938 -1.7513 3.8255 1.6904 0.3880 -5.8795 -2.9413 0.5774 5.8731 -1.2242 0.2202 2.9271 0.0000 0.0000 0.0000 9.9169 -7.913 -31.8981 28.7933 -39.8364 10.6281 24.4441 -17.0459 16.5315 0.0 0.0 0.0 -7.1250 0.0 0.0 -2.2283 11.9324 -1.7207 0.0000 0.0000 0.0000 3.5972 22.6918 -43.1076 -6.5508 -11.1776 -0.6417 -13.2108 44.4312 36.1624 0.0 0.0 0.0 7.1250 0.0 -0.0 26.3628 65.0272 -13.1897
0.6287 16.1736 0.1575 4.2533 6.9436 17.7212 0.0000 0.0000 0.0000 -25.0446 2.8703 -5.0807 0.9522 6.2141 17.4069 0.2002 -21.7059 -16.7765 0.1554 -2.5397 -6.9998 0.0000 0.0000 0.0000 15.5089 4.9449 -51.3298 -0.7228 -5.4324 15.1460 -0.0545 10.9932 -8.5111 -0.4677 4.3866 -12.1669 -4.5564 -3.2418 -14.8961 0.7219 -3.6387 -4.7831 2.6776 -1.7954 3.5900 1.9377 0.3624 -5.1150 -3.4354 0.5530 5.3741 -1.4225 0.2050 2.6211 0.0000 -0.0000 0.0000 9.7835 -7.772 -31.5925 29.3436 -40.3241 10.9824 24.2761 -16.7376 16.6279 0.0 0.0 0.0 -7.1250 0.0 0.0 -2.3475 11.8519 -1.8169 0.0000 -0.0000 0.0000 3.4934 23.3276 -43.6113 -6.5425 -11.1639 -0.6401 -13.377 44.441 35.3153 0.0 0.0 0.0 7.1250 0.0 -0.0 25.2240 64.3288 -12.1781
0.6191 16.1398 0.3655 4.3087 7.0431 17.6951 0.0000 0.0000 0.0000 -24.8647 2.5261 -4.1169 0.9513 6.2114 17.3991 0.3658 -21.0203 -17.5386 0.3430 -3.7635 -10.4123 0.0000 0.0000 0.0000 15.4617 5.2426 -51.1116 -0.7073 -5.3752 14.9818 -0.1491 10.2990 -9.4256 -1.3113 7.2535 -20.4686 -4.6132 -3.2842 -14.6356 0.8411 -3.7073 -4.8819 2.8370 -1.8235 3.3624 2.0598 0.3689 -4.6759 -3.8048 0.5691 4.9348 -1.5577 0.2103 2.3985 0.0000 0.0000 0.0000 9.6782 -7.8166 -31.3255 29.9194 -40.8242 11.3569 23.7701 -16.5105 16.6825 0.0 0.0 0.0 -7.1250 0.0 0.0 -2.6877 11.8636 -2.0801 0.0000 0.0000 0.0000 3.2341 23.4156 -45.1092 -6.4173 -10.9564 -0.6161 -13.3964 45.8307 35.6761 0.0 0.0 0.0 7.1250 0.0 -0.0 25.6030 64.6523 -12.5644
0.6211 16.1127 0.5868 4.2307 7.3829 17.5813 0.0000 0.0000 0.0000 -24.5051 2.0604 -3.0778 0.9672 6.2614 17.5448 0.4336 -20.7360 -17.8535 0.5248 -4.6424 -12.8915 0.0000 0.0000 0.0000 15.3891 5.4722 -50.6491 -0.7269 -5.4475 15.1895 -0.2540 9.6426 -10.5006 -1.8516 8.5500 -24.3974 -4.3344 -3.3255 -14.7074 0.9500 -3.7999 -4.6750 2.7680 -1.8775 3.6185 2.0436 0.4415 -5.1966 -3.9011 0.6699 5.0402 -1.5866 0.2516 2.5344 0.0000 -0.0000 0.0000 9.4718 -8.2545 -30.943 30.3055 -41.1538 11.6102 23.5449 -16.2119 16.3809 0.0 0.0 0.0 -7.1250 0.0 0.0 -2.8147 12.2176 -2.158 0.0000 -0.0000 0.0000 3.1453 23.1034 -46.3423 -6.3774 -10.8901 -0.6085 -13.061 46.7057 35.9972 0.0 0.0 0.0 7.1250 0.0 -0.0 26.3347 64.8414 -13.0619
